<svg width="501" height="491" viewBox="0 0 501 491" fill="none" xmlns="http://www.w3.org/2000/svg">
<path d="M240.167 2.27104C226.434 9.3377 224.034 28.9377 235.901 38.8044C240.567 42.8044 240.567 43.071 236.967 61.2044C233.634 77.6044 235.634 76.0044 216.434 77.6044C187.367 80.0044 178.567 85.3377 176.567 101.604C174.567 117.071 174.834 116.404 168.7 118.271C152.834 122.938 124.034 139.204 107.767 152.671C89.9005 167.338 71.1005 188.938 59.2338 208.404C54.4338 216.404 54.3005 216.404 44.7005 218.804C31.3672 222.138 24.3005 225.738 21.2338 230.671C13.7672 242.938 2.03383 288.271 0.300495 312.404C-1.03284 330.804 1.63383 336.138 17.2338 345.471L24.1672 349.604L26.7005 362.138C32.1672 389.338 43.5005 410.271 63.6338 430.271C103.634 470.138 166.567 490.538 249.767 490.671C283.767 490.804 299.101 489.338 327.767 483.604C409.501 467.338 461.767 423.871 474.167 362.138L476.701 349.604L483.234 345.604C494.034 339.071 495.767 337.471 498.434 332.138C501.634 326.004 501.767 319.204 498.967 299.471C495.501 274.004 484.967 238.404 478.301 228.804C475.501 224.804 470.301 222.538 456.167 218.938C446.567 216.404 446.434 216.404 441.767 208.538C425.767 181.738 401.634 156.938 374.034 139.071C361.767 131.071 341.767 121.071 332.167 118.271C326.034 116.404 326.301 117.071 324.301 101.604C322.167 84.8044 314.167 80.271 280.701 77.2044C273.501 76.5377 267.501 75.7377 267.234 75.471C266.967 75.2044 265.234 67.6044 263.501 58.671L260.167 42.4044L264.167 39.6044C272.567 33.3377 275.101 19.7377 269.634 10.271C264.034 0.937702 250.301 -2.79563 240.167 2.27104ZM290.701 170.271C341.501 180.938 381.234 211.604 404.301 258.004C418.167 285.738 425.367 324.538 421.101 347.738C419.367 357.338 411.901 372.271 404.967 380.138C382.967 405.071 338.034 422.671 283.767 427.738C259.901 429.871 215.5 428.538 195.1 425.071C129.1 413.471 89.2338 387.471 80.4338 350.138C73.5005 320.671 85.7672 270.671 108.034 237.871C134.301 199.071 175.367 174.271 224.034 167.738C239.501 165.604 275.501 167.071 290.701 170.271Z" fill="#5E44FF"/>
<path d="M160.7 257.071C142.833 260.004 130.033 286.004 134.167 310.404C137.767 331.471 149.9 345.204 164.833 345.204C193.9 345.204 208.033 296.004 187.1 268.538C180.033 259.204 170.833 255.204 160.7 257.071Z" fill="#5E44FF"/>
<path d="M331.101 256.938C310.034 261.738 298.168 291.604 306.434 318.538C313.368 340.938 332.034 351.338 348.301 341.738C369.768 329.204 374.034 290.804 356.568 267.204C351.101 259.738 339.368 254.938 331.101 256.938Z" fill="#5E44FF"/>
</svg>
